<svg width="123" height="48" xmlns="http://www.w3.org/2000/svg" viewBox="0 0 191.36 75.73"><title>Asset 1</title><g id="Layer_2" data-name="Layer 2"><g id="Layer_1-2" data-name="Layer 1"><path d="M0,0V75.73H71.34V0ZM69.16,73.88h-67V1.62h67Z" fill="#f5eb1f"/><polygon points="97.37 2.14 97.37 29.73 88.41 29.73 88.41 2.14 83.32 2.14 83.32 62.4 88.41 62.4 88.41 34.42 97.37 34.42 97.37 62.4 102.46 62.4 102.46 2.14 97.37 2.14" fill="#231f20"/><polygon points="171.5 5.95 171.5 2.07 161.56 2.07 156.48 2.07 156.48 5.95 156.48 29.36 156.48 33.24 156.48 57.83 156.48 61.7 161.56 61.7 171.5 61.7 171.5 57.83 161.56 57.83 161.56 33.24 169.31 33.24 169.31 29.36 161.56 29.36 161.56 5.95 171.5 5.95" fill="#231f20"/><path d="M146.71,33.51a6.3,6.3,0,0,0,3.91-5.43v-20c0-6.28-5.58-6-5.58-6H132.62v60.3h4.19V35.08l4.46-.15,4.64,27.41,5.59.06ZM146,11.22V26.65c0,3.28-2.65,3.43-2.65,3.43h-6V6.93h5.58C146.29,6.93,146,11.22,146,11.22Z" fill="#2d2d2d"/><path d="M117.75,2.07h-1.41a8,8,0,0,0-7.84,8V54.36a8,8,0,0,0,7.84,8h1.41a8,8,0,0,0,7.83-8V10.1A8,8,0,0,0,117.75,2.07Zm2.92,52.74a3.76,3.76,0,1,1-7.51,0v-45a3.76,3.76,0,1,1,7.51,0Z" fill="#231f20"/><polygon points="191.36 6.01 191.36 2.14 181.42 2.14 176.34 2.14 176.34 6.01 176.34 29.4 176.34 33.27 176.34 57.83 176.34 61.7 181.42 61.7 191.36 61.7 191.36 57.83 181.42 57.83 181.42 33.27 189.17 33.27 189.17 29.4 181.42 29.4 181.42 6.01 191.36 6.01" fill="#231f20"/><path d="M87.61,68.64a2.11,2.11,0,0,0-.17-.44,1,1,0,0,0-.28-.34,1.09,1.09,0,0,0-.39-.23,1.69,1.69,0,0,0-.53-.08,1.55,1.55,0,0,0-.76.18,1.35,1.35,0,0,0-.51.47,1.94,1.94,0,0,0-.3.67,3,3,0,0,0,0,1.54,1.94,1.94,0,0,0,.3.67,1.35,1.35,0,0,0,.51.47,1.55,1.55,0,0,0,.76.18,1.41,1.41,0,0,0,.57-.11,1.18,1.18,0,0,0,.42-.31,1.42,1.42,0,0,0,.28-.46,2,2,0,0,0,.13-.56h.94a2.58,2.58,0,0,1-.21.9,2.37,2.37,0,0,1-.49.71,2.24,2.24,0,0,1-.72.45,2.47,2.47,0,0,1-.92.17,2.57,2.57,0,0,1-1.1-.23,2.45,2.45,0,0,1-.83-.62,2.92,2.92,0,0,1-.52-.91,3.54,3.54,0,0,1,0-2.23,2.92,2.92,0,0,1,.52-.91,2.5,2.5,0,0,1,1.93-.85,3,3,0,0,1,.87.12,2.45,2.45,0,0,1,.72.37,1.9,1.9,0,0,1,.5.59,2,2,0,0,1,.24.79Z" fill="#636464"/><path d="M91.79,66.77a2.43,2.43,0,0,1,1.1.23,2.35,2.35,0,0,1,.83.62,2.73,2.73,0,0,1,.52.91,3.54,3.54,0,0,1,0,2.23,2.73,2.73,0,0,1-.52.91,2.35,2.35,0,0,1-.83.62,2.75,2.75,0,0,1-2.2,0,2.45,2.45,0,0,1-.83-.62,2.92,2.92,0,0,1-.52-.91,3.54,3.54,0,0,1,0-2.23,2.92,2.92,0,0,1,.52-.91,2.5,2.5,0,0,1,1.93-.85Zm0,.78a1.55,1.55,0,0,0-.76.18,1.35,1.35,0,0,0-.51.47,1.94,1.94,0,0,0-.3.67,3,3,0,0,0,0,1.54,1.94,1.94,0,0,0,.3.67,1.35,1.35,0,0,0,.51.47,1.55,1.55,0,0,0,.76.18,1.53,1.53,0,0,0,.76-.18,1.46,1.46,0,0,0,.52-.47,2.13,2.13,0,0,0,.29-.67,3,3,0,0,0,0-1.54,2.13,2.13,0,0,0-.29-.67,1.46,1.46,0,0,0-.52-.47A1.53,1.53,0,0,0,91.79,67.55Z" fill="#636464"/><path d="M95.3,66.9h2.27a2.62,2.62,0,0,1,1.09.21,2.13,2.13,0,0,1,.76.59,2.53,2.53,0,0,1,.43.87,4.13,4.13,0,0,1,.14,1.07,4.07,4.07,0,0,1-.14,1.07,2.53,2.53,0,0,1-.43.87,2,2,0,0,1-.76.59,2.62,2.62,0,0,1-1.09.21H95.3Zm1,4.7h.94a2.39,2.39,0,0,0,.92-.15,1.34,1.34,0,0,0,.56-.41,1.51,1.51,0,0,0,.28-.63,4.27,4.27,0,0,0,0-1.54,1.41,1.41,0,0,0-.28-.62,1.28,1.28,0,0,0-.56-.42,2.39,2.39,0,0,0-.92-.15h-.94Z" fill="#636464"/><path d="M100.84,66.9h1v5.48h-1Z" fill="#636464"/><path d="M102.94,66.9h1l2.5,4h0v-4h.91v5.48h-1l-2.5-4h0v4h-.92Z" fill="#636464"/><path d="M113.32,72.38h-.61l-.15-.64a2.42,2.42,0,0,1-.77.61,2.23,2.23,0,0,1-.88.17,2.65,2.65,0,0,1-1.11-.23,2.41,2.41,0,0,1-.82-.62,2.73,2.73,0,0,1-.52-.91,3.54,3.54,0,0,1,0-2.23,2.73,2.73,0,0,1,.52-.91,2.41,2.41,0,0,1,.82-.62,2.51,2.51,0,0,1,1.11-.23,3,3,0,0,1,.85.12,2.05,2.05,0,0,1,.71.35,1.89,1.89,0,0,1,.53.59,2.21,2.21,0,0,1,.26.81h-.94a1.14,1.14,0,0,0-.16-.47,1.3,1.3,0,0,0-.32-.34,1.43,1.43,0,0,0-.43-.21,1.68,1.68,0,0,0-.5-.07,1.5,1.5,0,0,0-.76.18,1.38,1.38,0,0,0-.52.47,2.4,2.4,0,0,0-.3.67,3.34,3.34,0,0,0,0,1.54,2.4,2.4,0,0,0,.3.67,1.38,1.38,0,0,0,.52.47,1.5,1.5,0,0,0,.76.18,1.89,1.89,0,0,0,.65-.09,1.31,1.31,0,0,0,.48-.3,1.44,1.44,0,0,0,.3-.49,2,2,0,0,0,.1-.63H111v-.73h2.34Z" fill="#636464"/><path d="M120.21,68.64a2.11,2.11,0,0,0-.17-.44,1.16,1.16,0,0,0-.28-.34,1.09,1.09,0,0,0-.39-.23,1.74,1.74,0,0,0-.53-.08,1.53,1.53,0,0,0-.76.18,1.46,1.46,0,0,0-.52.47,2.13,2.13,0,0,0-.29.67,3,3,0,0,0,0,1.54,2.13,2.13,0,0,0,.29.67,1.46,1.46,0,0,0,.52.47,1.53,1.53,0,0,0,.76.18,1.48,1.48,0,0,0,.57-.11,1.27,1.27,0,0,0,.42-.31,1.42,1.42,0,0,0,.28-.46,2.42,2.42,0,0,0,.13-.56h.93a2.58,2.58,0,0,1-.21.9,2.34,2.34,0,0,1-.48.71,2.18,2.18,0,0,1-.73.45,2.42,2.42,0,0,1-.91.17,2.57,2.57,0,0,1-1.1-.23,2.35,2.35,0,0,1-.83-.62,2.73,2.73,0,0,1-.52-.91,3.54,3.54,0,0,1,0-2.23,2.73,2.73,0,0,1,.52-.91,2.35,2.35,0,0,1,.83-.62,2.43,2.43,0,0,1,1.1-.23,3,3,0,0,1,.87.12,2.45,2.45,0,0,1,.72.37,2,2,0,0,1,.5.59,2,2,0,0,1,.24.79Z" fill="#636464"/><path d="M124.39,66.77a2.5,2.5,0,0,1,1.93.85,2.92,2.92,0,0,1,.52.91,3.54,3.54,0,0,1,0,2.23,2.92,2.92,0,0,1-.52.91,2.45,2.45,0,0,1-.83.62,2.75,2.75,0,0,1-2.2,0,2.35,2.35,0,0,1-.83-.62,2.73,2.73,0,0,1-.52-.91,3.54,3.54,0,0,1,0-2.23,2.73,2.73,0,0,1,.52-.91,2.35,2.35,0,0,1,.83-.62A2.43,2.43,0,0,1,124.39,66.77Zm0,.78a1.53,1.53,0,0,0-.76.18,1.46,1.46,0,0,0-.52.47,2.13,2.13,0,0,0-.29.67,3,3,0,0,0,0,1.54,2.13,2.13,0,0,0,.29.67,1.46,1.46,0,0,0,.52.47,1.53,1.53,0,0,0,.76.18,1.49,1.49,0,0,0,.75-.18,1.31,1.31,0,0,0,.52-.47,1.94,1.94,0,0,0,.3-.67,3,3,0,0,0,0-1.54,1.94,1.94,0,0,0-.3-.67,1.31,1.31,0,0,0-.52-.47A1.49,1.49,0,0,0,124.39,67.55Z" fill="#636464"/><path d="M127.88,66.9h1.35l1.51,4.29h0l1.48-4.29h1.33v5.48h-.91V68.15h0l-1.52,4.23h-.79l-1.52-4.23h0v4.23h-.91Z" fill="#636464"/><path d="M134.71,66.9h1.35l1.52,4.29h0l1.48-4.29h1.34v5.48h-.92V68.15h0L138,72.38h-.79l-1.52-4.23h0v4.23h-.92Z" fill="#636464"/><path d="M141.5,66.9h1v3.19c0,.19,0,.38,0,.57a1.27,1.27,0,0,0,.16.51,1,1,0,0,0,.38.37,1.47,1.47,0,0,0,.73.15,1.43,1.43,0,0,0,.72-.15,1,1,0,0,0,.39-.37,1.26,1.26,0,0,0,.15-.51,5.44,5.44,0,0,0,0-.57V66.9h1v3.51a2.36,2.36,0,0,1-.16.92,1.83,1.83,0,0,1-.46.66,1.76,1.76,0,0,1-.71.39,3,3,0,0,1-.92.14,2.91,2.91,0,0,1-.92-.14,1.69,1.69,0,0,1-.71-.39,1.83,1.83,0,0,1-.46-.66,2.36,2.36,0,0,1-.16-.92Z" fill="#636464"/><path d="M147.07,66.9h1l2.51,4h0v-4h.92v5.48h-1l-2.5-4h0v4h-.91Z" fill="#636464"/><path d="M152.66,66.9h1v5.48h-1Z" fill="#636464"/><path d="M154.27,66.9h4.44v.83H157v4.65h-1V67.73h-1.74Z" fill="#636464"/><path d="M160.78,70.23l-2.06-3.33h1.12l1.45,2.46,1.43-2.46h1.07l-2,3.33v2.15h-1Z" fill="#636464"/><path d="M9.48,14a3.16,3.16,0,0,1,.67-1.17,2.47,2.47,0,0,1,1-.63A3.9,3.9,0,0,1,12.31,12a3.85,3.85,0,0,1,1.19.19,2.5,2.5,0,0,1,1,.63A3.17,3.17,0,0,1,15.16,14a5.85,5.85,0,0,1,.24,1.8,6,6,0,0,1-.24,1.84,3,3,0,0,1-.68,1.18,2.3,2.3,0,0,1-1,.63,3.58,3.58,0,0,1-1.19.19,3.62,3.62,0,0,1-1.19-.19,2.27,2.27,0,0,1-1-.63,3,3,0,0,1-.67-1.18,6,6,0,0,1-.25-1.84A5.83,5.83,0,0,1,9.48,14ZM11,16.58a4,4,0,0,0,.15.86,1.9,1.9,0,0,0,.4.71,1,1,0,0,0,.8.29,1.06,1.06,0,0,0,.81-.29,1.77,1.77,0,0,0,.4-.71,3,3,0,0,0,.15-.86c0-.3,0-.55,0-.76s0-.28,0-.45a3.64,3.64,0,0,0,0-.56,3,3,0,0,0-.12-.56,1.75,1.75,0,0,0-.23-.5,1.23,1.23,0,0,0-.4-.35,1.16,1.16,0,0,0-.58-.14,1.17,1.17,0,0,0-.59.14,1.27,1.27,0,0,0-.38.35,1.75,1.75,0,0,0-.23.5,3,3,0,0,0-.12.56,5.54,5.54,0,0,0-.05.56v.45C10.94,16,11,16.28,11,16.58Z" fill="#f5eb1f"/><path d="M18.65,19.53V14.76H16.54V13.64a4.06,4.06,0,0,0,.86-.06,2.15,2.15,0,0,0,.74-.24,1.8,1.8,0,0,0,.56-.46,1.49,1.49,0,0,0,.3-.7h1.36v7.35Z" fill="#f5eb1f"/><path d="M22.82,14a3.3,3.3,0,0,1,.67-1.17,2.5,2.5,0,0,1,1-.63A3.79,3.79,0,0,1,25.65,12a3.85,3.85,0,0,1,1.19.19,2.54,2.54,0,0,1,1,.63A3.16,3.16,0,0,1,28.5,14a5.83,5.83,0,0,1,.25,1.8,6,6,0,0,1-.25,1.84,3,3,0,0,1-.67,1.18,2.33,2.33,0,0,1-1,.63,3.58,3.58,0,0,1-1.19.19,3.52,3.52,0,0,1-1.18-.19,2.3,2.3,0,0,1-1-.63,3.1,3.1,0,0,1-.67-1.18,6,6,0,0,1-.24-1.84A5.85,5.85,0,0,1,22.82,14Zm1.49,2.56a3,3,0,0,0,.15.86,1.66,1.66,0,0,0,.4.71,1,1,0,0,0,.79.29,1.06,1.06,0,0,0,.81-.29,1.79,1.79,0,0,0,.41-.71,4,4,0,0,0,.15-.86c0-.3,0-.55,0-.76v-.45a5.54,5.54,0,0,0-.05-.56c0-.18-.07-.37-.12-.56a1.54,1.54,0,0,0-.24-.5,1.15,1.15,0,0,0-1-.49,1.13,1.13,0,0,0-.58.14,1.2,1.2,0,0,0-.39.35,2.07,2.07,0,0,0-.23.5,3,3,0,0,0-.12.56,5.46,5.46,0,0,0,0,.56c0,.17,0,.33,0,.45S24.29,16.28,24.31,16.58Z" fill="#f5eb1f"/><path d="M29.5,14a3.14,3.14,0,0,1,.66-1.17,2.5,2.5,0,0,1,1-.63A3.84,3.84,0,0,1,32.32,12a3.92,3.92,0,0,1,1.2.19,2.5,2.5,0,0,1,1,.63A3.16,3.16,0,0,1,35.17,14a5.54,5.54,0,0,1,.25,1.8,5.68,5.68,0,0,1-.25,1.84,3,3,0,0,1-.67,1.18,2.3,2.3,0,0,1-1,.63,3.64,3.64,0,0,1-1.2.19,3.56,3.56,0,0,1-1.18-.19,2.3,2.3,0,0,1-1-.63,3,3,0,0,1-.66-1.18,5.68,5.68,0,0,1-.25-1.84A5.54,5.54,0,0,1,29.5,14ZM31,16.58a3,3,0,0,0,.15.86,1.77,1.77,0,0,0,.4.71,1,1,0,0,0,.79.29,1.06,1.06,0,0,0,.81-.29,1.68,1.68,0,0,0,.41-.71,4,4,0,0,0,.15-.86c0-.3,0-.55,0-.76v-.45a5.54,5.54,0,0,0-.05-.56c0-.18-.07-.37-.12-.56a1.75,1.75,0,0,0-.23-.5,1.35,1.35,0,0,0-.4-.35,1.2,1.2,0,0,0-.59-.14,1.11,1.11,0,0,0-1,.49,2.1,2.1,0,0,0-.24.5c-.05.19-.09.38-.12.56a5.46,5.46,0,0,0,0,.56c0,.17,0,.33,0,.45S31,16.28,31,16.58Z" fill="#f5eb1f"/><path d="M36.17,14a3.14,3.14,0,0,1,.66-1.17,2.5,2.5,0,0,1,1-.63,3.82,3.82,0,0,1,2.38,0,2.5,2.5,0,0,1,1,.63A3,3,0,0,1,41.84,14a5.54,5.54,0,0,1,.25,1.8,5.68,5.68,0,0,1-.25,1.84,2.86,2.86,0,0,1-.67,1.18,2.3,2.3,0,0,1-1,.63,3.82,3.82,0,0,1-2.38,0,2.3,2.3,0,0,1-1-.63,3,3,0,0,1-.66-1.18,5.68,5.68,0,0,1-.25-1.84A5.54,5.54,0,0,1,36.17,14Zm1.48,2.56a4,4,0,0,0,.15.86,1.77,1.77,0,0,0,.4.71,1.25,1.25,0,0,0,1.6,0,1.68,1.68,0,0,0,.41-.71,3,3,0,0,0,.15-.86c0-.3,0-.55,0-.76s0-.28,0-.45a3.64,3.64,0,0,0-.05-.56c0-.18-.07-.37-.12-.56a1.75,1.75,0,0,0-.23-.5,1.35,1.35,0,0,0-.4-.35,1.17,1.17,0,0,0-.59-.14,1.16,1.16,0,0,0-.58.14,1.27,1.27,0,0,0-.38.35,2.1,2.1,0,0,0-.24.5c0,.19-.09.38-.12.56s0,.38,0,.56v.45C37.63,16,37.63,16.28,37.65,16.58Z" fill="#f5eb1f"/><path d="M42.84,14a3.16,3.16,0,0,1,.67-1.17,2.47,2.47,0,0,1,1-.63A3.9,3.9,0,0,1,45.67,12a3.85,3.85,0,0,1,1.19.19,2.5,2.5,0,0,1,1,.63A3.17,3.17,0,0,1,48.52,14a5.85,5.85,0,0,1,.24,1.8,6,6,0,0,1-.24,1.84,3,3,0,0,1-.68,1.18,2.3,2.3,0,0,1-1,.63,3.58,3.58,0,0,1-1.19.19,3.62,3.62,0,0,1-1.19-.19,2.27,2.27,0,0,1-1-.63,3,3,0,0,1-.67-1.18,6,6,0,0,1-.25-1.84A5.83,5.83,0,0,1,42.84,14Zm1.48,2.56a4,4,0,0,0,.15.86,1.9,1.9,0,0,0,.4.71,1,1,0,0,0,.8.29,1.06,1.06,0,0,0,.81-.29,1.77,1.77,0,0,0,.4-.71,3,3,0,0,0,.15-.86c0-.3,0-.55,0-.76s0-.28,0-.45a3.64,3.64,0,0,0,0-.56,3,3,0,0,0-.12-.56,1.75,1.75,0,0,0-.23-.5,1.23,1.23,0,0,0-.4-.35,1.16,1.16,0,0,0-.58-.14,1.17,1.17,0,0,0-.59.14,1.27,1.27,0,0,0-.38.35,1.75,1.75,0,0,0-.23.5,3,3,0,0,0-.12.56,5.54,5.54,0,0,0-.05.56v.45C44.3,16,44.31,16.28,44.32,16.58Z" fill="#f5eb1f"/><path d="M49.51,14a3.3,3.3,0,0,1,.67-1.17,2.43,2.43,0,0,1,1-.63A3.79,3.79,0,0,1,52.34,12a3.85,3.85,0,0,1,1.19.19,2.61,2.61,0,0,1,1,.63A3.3,3.3,0,0,1,55.19,14a5.85,5.85,0,0,1,.24,1.8,6,6,0,0,1-.24,1.84,3.1,3.1,0,0,1-.67,1.18,2.39,2.39,0,0,1-1,.63,3.58,3.58,0,0,1-1.19.19,3.52,3.52,0,0,1-1.18-.19,2.24,2.24,0,0,1-1-.63,3.1,3.1,0,0,1-.67-1.18,6,6,0,0,1-.24-1.84A5.85,5.85,0,0,1,49.51,14ZM51,16.58a4,4,0,0,0,.15.86,1.79,1.79,0,0,0,.41.71,1,1,0,0,0,.79.29,1.06,1.06,0,0,0,.81-.29,1.79,1.79,0,0,0,.41-.71,4,4,0,0,0,.15-.86c0-.3,0-.55,0-.76s0-.28,0-.45a5.46,5.46,0,0,0,0-.56c0-.18-.07-.37-.12-.56a1.78,1.78,0,0,0-.24-.5,1.15,1.15,0,0,0-1-.49,1.13,1.13,0,0,0-.58.14,1.2,1.2,0,0,0-.39.35,1.75,1.75,0,0,0-.23.5,3,3,0,0,0-.12.56,3.6,3.6,0,0,0,0,.56c0,.17,0,.33,0,.45S51,16.28,51,16.58Z" fill="#f5eb1f"/><path d="M58.69,19.53V14.76H56.57V13.64a4,4,0,0,0,.86-.06,2.2,2.2,0,0,0,.75-.24,1.76,1.76,0,0,0,.55-.46,1.32,1.32,0,0,0,.3-.7h1.36v7.35Z" fill="#f5eb1f"/><path d="M9.48,24.28a3,3,0,0,1,.67-1.17,2.27,2.27,0,0,1,1-.63,3.62,3.62,0,0,1,1.19-.19,3.58,3.58,0,0,1,1.19.19,2.3,2.3,0,0,1,1,.63,3,3,0,0,1,.68,1.17,5.77,5.77,0,0,1,.24,1.8,6,6,0,0,1-.24,1.84,3.06,3.06,0,0,1-.68,1.18,2.5,2.5,0,0,1-1,.63,3.85,3.85,0,0,1-1.19.19,3.9,3.9,0,0,1-1.19-.19,2.47,2.47,0,0,1-1-.63,3,3,0,0,1-.67-1.18,6,6,0,0,1-.25-1.84A5.74,5.74,0,0,1,9.48,24.28ZM11,26.84a4.07,4.07,0,0,0,.15.86,2,2,0,0,0,.4.71,1.07,1.07,0,0,0,.8.29,1.1,1.1,0,0,0,.81-.29,1.84,1.84,0,0,0,.4-.71,3.1,3.1,0,0,0,.15-.86c0-.3,0-.55,0-.76s0-.28,0-.46a3.51,3.51,0,0,0,0-.55,2.66,2.66,0,0,0-.12-.56,1.64,1.64,0,0,0-.23-.5,1.12,1.12,0,0,0-1-.49,1.17,1.17,0,0,0-.59.13,1.19,1.19,0,0,0-.38.36,1.64,1.64,0,0,0-.23.5,2.66,2.66,0,0,0-.12.56,5.35,5.35,0,0,0-.05.55v.46C10.94,26.29,11,26.54,11,26.84Z" fill="#f5eb1f"/><path d="M18.65,29.78V25H16.54V23.9a6,6,0,0,0,.86-.06,2.68,2.68,0,0,0,.74-.24,1.8,1.8,0,0,0,.56-.46,1.54,1.54,0,0,0,.3-.7h1.36v7.34Z" fill="#f5eb1f"/><path d="M22.82,24.28a3.13,3.13,0,0,1,.67-1.17,2.3,2.3,0,0,1,1-.63,3.52,3.52,0,0,1,1.18-.19,3.58,3.58,0,0,1,1.19.19,2.33,2.33,0,0,1,1,.63,3,3,0,0,1,.67,1.17,5.74,5.74,0,0,1,.25,1.8,6,6,0,0,1-.25,1.84,3,3,0,0,1-.67,1.18,2.54,2.54,0,0,1-1,.63,3.85,3.85,0,0,1-1.19.19,3.79,3.79,0,0,1-1.18-.19,2.5,2.5,0,0,1-1-.63,3.18,3.18,0,0,1-.67-1.18,6,6,0,0,1-.24-1.84A5.77,5.77,0,0,1,22.82,24.28Zm1.49,2.56a3.1,3.1,0,0,0,.15.86,1.72,1.72,0,0,0,.4.71,1,1,0,0,0,.79.29,1.1,1.1,0,0,0,.81-.29,1.87,1.87,0,0,0,.41-.71,4.07,4.07,0,0,0,.15-.86c0-.3,0-.55,0-.76v-.46a5.35,5.35,0,0,0-.05-.55,5.05,5.05,0,0,0-.12-.56,1.45,1.45,0,0,0-.24-.5,1.12,1.12,0,0,0-.39-.36,1.2,1.2,0,0,0-.59-.13,1.08,1.08,0,0,0-1,.49,1.91,1.91,0,0,0-.23.5,2.66,2.66,0,0,0-.12.56,5.28,5.28,0,0,0,0,.55c0,.18,0,.33,0,.46S24.29,26.54,24.31,26.84Z" fill="#f5eb1f"/><path d="M29.5,24.28a3,3,0,0,1,.66-1.17,2.3,2.3,0,0,1,1-.63,3.56,3.56,0,0,1,1.18-.19,3.64,3.64,0,0,1,1.2.19,2.3,2.3,0,0,1,1,.63,3,3,0,0,1,.67,1.17,5.46,5.46,0,0,1,.25,1.8,5.72,5.72,0,0,1-.25,1.84,3,3,0,0,1-.67,1.18,2.5,2.5,0,0,1-1,.63,3.92,3.92,0,0,1-1.2.19,3.84,3.84,0,0,1-1.18-.19,2.5,2.5,0,0,1-1-.63,3,3,0,0,1-.66-1.18,5.72,5.72,0,0,1-.25-1.84A5.46,5.46,0,0,1,29.5,24.28ZM31,26.84a3.1,3.1,0,0,0,.15.86,1.84,1.84,0,0,0,.4.71,1,1,0,0,0,.79.29,1.1,1.1,0,0,0,.81-.29,1.74,1.74,0,0,0,.41-.71,4.07,4.07,0,0,0,.15-.86c0-.3,0-.55,0-.76v-.46a5.35,5.35,0,0,0-.05-.55,5.05,5.05,0,0,0-.12-.56,1.64,1.64,0,0,0-.23-.5,1.25,1.25,0,0,0-.4-.36,1.2,1.2,0,0,0-.59-.13,1.16,1.16,0,0,0-.58.13,1.09,1.09,0,0,0-.38.36,1.93,1.93,0,0,0-.24.5,5.05,5.05,0,0,0-.12.56,5.28,5.28,0,0,0,0,.55c0,.18,0,.33,0,.46S31,26.54,31,26.84Z" fill="#f5eb1f"/><path d="M38.67,29.78V25H36.56V23.9a6.11,6.11,0,0,0,.86-.06,2.79,2.79,0,0,0,.74-.24,1.8,1.8,0,0,0,.56-.46,1.54,1.54,0,0,0,.3-.7h1.35v7.34Z" fill="#f5eb1f"/><path d="M45.34,29.78V25H43.23V23.9a6,6,0,0,0,.86-.06,2.79,2.79,0,0,0,.74-.24,1.8,1.8,0,0,0,.56-.46,1.54,1.54,0,0,0,.3-.7h1.36v7.34Z" fill="#f5eb1f"/><path d="M52,29.78V25H49.9V23.9a6,6,0,0,0,.86-.06,2.87,2.87,0,0,0,.75-.24,1.88,1.88,0,0,0,.55-.46,1.54,1.54,0,0,0,.3-.7h1.36v7.34Z" fill="#f5eb1f"/><path d="M58.69,29.78V25H56.57V23.9a5.9,5.9,0,0,0,.86-.06,2.75,2.75,0,0,0,.75-.24,1.76,1.76,0,0,0,.55-.46,1.35,1.35,0,0,0,.3-.7h1.36v7.34Z" fill="#f5eb1f"/><path d="M10.53,34.21A3.1,3.1,0,0,1,11.17,33a2.17,2.17,0,0,1,.94-.63,3.27,3.27,0,0,1,1.13-.19,3.34,3.34,0,0,1,1.15.19,2.27,2.27,0,0,1,.95.63A3.1,3.1,0,0,1,16,34.21a5.77,5.77,0,0,1,.24,1.8A6,6,0,0,1,16,37.85,3.15,3.15,0,0,1,15.34,39a2.47,2.47,0,0,1-.95.63,3.6,3.6,0,0,1-1.15.19,3.53,3.53,0,0,1-1.13-.19,2.37,2.37,0,0,1-.94-.63,3.15,3.15,0,0,1-.64-1.18A6.07,6.07,0,0,1,10.3,36,5.79,5.79,0,0,1,10.53,34.21ZM12,36.77a4.07,4.07,0,0,0,.15.86,1.87,1.87,0,0,0,.38.71,1,1,0,0,0,.76.29,1,1,0,0,0,.78-.29,1.76,1.76,0,0,0,.39-.71,4.07,4.07,0,0,0,.15-.86c0-.3,0-.55,0-.76v-.46a5.35,5.35,0,0,0-.05-.55,5.05,5.05,0,0,0-.12-.56,1.62,1.62,0,0,0-.22-.5,1.31,1.31,0,0,0-.38-.36,1.09,1.09,0,0,0-.57-.13,1,1,0,0,0-.55.13,1.16,1.16,0,0,0-.37.36,1.91,1.91,0,0,0-.23.5,4.63,4.63,0,0,0-.15,1.11c0,.18,0,.33,0,.46S11.94,36.47,12,36.77Z" fill="#f5eb1f"/><path d="M19.34,39.71V35h-2V33.83a5.46,5.46,0,0,0,.82-.06,2.54,2.54,0,0,0,.72-.24,1.68,1.68,0,0,0,.53-.46,1.43,1.43,0,0,0,.29-.7H21v7.34Z" fill="#f5eb1f"/><path d="M23.34,34.21A3.1,3.1,0,0,1,24,33a2.17,2.17,0,0,1,.94-.63,3.27,3.27,0,0,1,1.13-.19,3.34,3.34,0,0,1,1.15.19,2.17,2.17,0,0,1,.94.63,3,3,0,0,1,.65,1.17A5.79,5.79,0,0,1,29,36a6.07,6.07,0,0,1-.23,1.84A3,3,0,0,1,28.14,39a2.37,2.37,0,0,1-.94.63,3.6,3.6,0,0,1-1.15.19,3.53,3.53,0,0,1-1.13-.19A2.37,2.37,0,0,1,24,39a3.15,3.15,0,0,1-.64-1.18A6,6,0,0,1,23.1,36,5.77,5.77,0,0,1,23.34,34.21Zm1.42,2.56a4.07,4.07,0,0,0,.15.86,1.87,1.87,0,0,0,.38.71,1,1,0,0,0,.76.29,1,1,0,0,0,.78-.29,1.76,1.76,0,0,0,.39-.71,4.07,4.07,0,0,0,.15-.86c0-.3,0-.55,0-.76s0-.28,0-.46a5.28,5.28,0,0,0,0-.55,5.05,5.05,0,0,0-.12-.56,1.62,1.62,0,0,0-.22-.5,1.31,1.31,0,0,0-.38-.36,1.12,1.12,0,0,0-.57-.13,1.08,1.08,0,0,0-.56.13,1.13,1.13,0,0,0-.36.36,1.64,1.64,0,0,0-.23.5,4.63,4.63,0,0,0-.15,1.11c0,.18,0,.33,0,.46S24.75,36.47,24.76,36.77Z" fill="#f5eb1f"/><path d="M32.15,39.71V35h-2V33.83a5.46,5.46,0,0,0,.82-.06,2.65,2.65,0,0,0,.72-.24,1.68,1.68,0,0,0,.53-.46,1.53,1.53,0,0,0,.29-.7h1.3v7.34Z" fill="#f5eb1f"/><path d="M36.15,34.21A3.1,3.1,0,0,1,36.79,33a2.17,2.17,0,0,1,.94-.63,3.23,3.23,0,0,1,1.13-.19,3.34,3.34,0,0,1,1.15.19A2.23,2.23,0,0,1,41,33a3.11,3.11,0,0,1,.65,1.17,6.11,6.11,0,0,1,.23,1.8,6.4,6.4,0,0,1-.23,1.84A3.16,3.16,0,0,1,41,39a2.44,2.44,0,0,1-.94.63,3.6,3.6,0,0,1-1.15.19,3.48,3.48,0,0,1-1.13-.19,2.37,2.37,0,0,1-.94-.63,3.15,3.15,0,0,1-.64-1.18A6,6,0,0,1,35.91,36,5.77,5.77,0,0,1,36.15,34.21Zm1.42,2.56a4.06,4.06,0,0,0,.14.86,1.88,1.88,0,0,0,.39.71,1,1,0,0,0,.76.29,1,1,0,0,0,.78-.29,1.76,1.76,0,0,0,.39-.71,3.51,3.51,0,0,0,.14-.86c0-.3,0-.55,0-.76s0-.28,0-.46a3.51,3.51,0,0,0,0-.55,3.47,3.47,0,0,0-.11-.56,1.43,1.43,0,0,0-.23-.5,1.1,1.1,0,0,0-.38-.36,1.27,1.27,0,0,0-1.12,0,1.27,1.27,0,0,0-.37.36,1.9,1.9,0,0,0-.22.5,5.05,5.05,0,0,0-.12.56c0,.19,0,.37,0,.55V36C37.55,36.22,37.55,36.47,37.57,36.77Z" fill="#f5eb1f"/><path d="M42.55,34.21A3.1,3.1,0,0,1,43.19,33a2.17,2.17,0,0,1,.94-.63,3.51,3.51,0,0,1,2.28,0,2.27,2.27,0,0,1,1,.63A3.1,3.1,0,0,1,48,34.21a5.77,5.77,0,0,1,.24,1.8A6,6,0,0,1,48,37.85,3.15,3.15,0,0,1,47.36,39a2.47,2.47,0,0,1-1,.63,3.51,3.51,0,0,1-2.28,0,2.37,2.37,0,0,1-.94-.63,3.15,3.15,0,0,1-.64-1.18A6.07,6.07,0,0,1,42.32,36,5.79,5.79,0,0,1,42.55,34.21ZM44,36.77a4.07,4.07,0,0,0,.15.86,1.87,1.87,0,0,0,.38.71,1,1,0,0,0,.76.29,1,1,0,0,0,.78-.29,1.76,1.76,0,0,0,.39-.71,4.07,4.07,0,0,0,.15-.86c0-.3,0-.55,0-.76s0-.28,0-.46a3.48,3.48,0,0,0,0-.55,5.05,5.05,0,0,0-.12-.56,1.62,1.62,0,0,0-.22-.5,1.31,1.31,0,0,0-.38-.36,1.12,1.12,0,0,0-.57-.13,1,1,0,0,0-.55.13,1.16,1.16,0,0,0-.37.36,1.91,1.91,0,0,0-.23.5A4.63,4.63,0,0,0,44,35.55c0,.18,0,.33,0,.46S44,36.47,44,36.77Z" fill="#f5eb1f"/><path d="M51.36,39.71V35h-2V33.83a5.46,5.46,0,0,0,.82-.06,2.54,2.54,0,0,0,.72-.24,1.68,1.68,0,0,0,.53-.46,1.43,1.43,0,0,0,.29-.7H53v7.34Z" fill="#f5eb1f"/><path d="M55.36,34.21A3.1,3.1,0,0,1,56,33a2.17,2.17,0,0,1,.94-.63,3.27,3.27,0,0,1,1.13-.19,3.34,3.34,0,0,1,1.15.19,2.17,2.17,0,0,1,.94.63,3,3,0,0,1,.65,1.17A5.79,5.79,0,0,1,61,36a6.07,6.07,0,0,1-.23,1.84A3,3,0,0,1,60.16,39a2.37,2.37,0,0,1-.94.63,3.6,3.6,0,0,1-1.15.19,3.53,3.53,0,0,1-1.13-.19A2.37,2.37,0,0,1,56,39a3.15,3.15,0,0,1-.64-1.18A6,6,0,0,1,55.12,36,5.77,5.77,0,0,1,55.36,34.21Zm1.42,2.56a4.07,4.07,0,0,0,.15.86,1.87,1.87,0,0,0,.38.71,1,1,0,0,0,.76.29,1,1,0,0,0,.78-.29,1.76,1.76,0,0,0,.39-.71,4.07,4.07,0,0,0,.15-.86c0-.3,0-.55,0-.76s0-.28,0-.46a5.28,5.28,0,0,0,0-.55,5.05,5.05,0,0,0-.12-.56,1.62,1.62,0,0,0-.22-.5,1.31,1.31,0,0,0-.38-.36,1.12,1.12,0,0,0-.57-.13,1.08,1.08,0,0,0-.56.13,1.13,1.13,0,0,0-.36.36,1.64,1.64,0,0,0-.23.5,4.63,4.63,0,0,0-.15,1.11c0,.18,0,.33,0,.46S56.77,36.47,56.78,36.77Z" fill="#f5eb1f"/><path d="M9.48,44.26a3,3,0,0,1,.67-1.17,2.27,2.27,0,0,1,1-.63,3.62,3.62,0,0,1,1.19-.19,3.58,3.58,0,0,1,1.19.19,2.3,2.3,0,0,1,1,.63,3,3,0,0,1,.68,1.17,5.74,5.74,0,0,1,.24,1.79,6.11,6.11,0,0,1-.24,1.85,3.14,3.14,0,0,1-.68,1.18,2.5,2.5,0,0,1-1,.63,3.85,3.85,0,0,1-1.19.18,3.9,3.9,0,0,1-1.19-.18,2.47,2.47,0,0,1-1-.63,3.12,3.12,0,0,1-.67-1.18,6.08,6.08,0,0,1-.25-1.85A5.72,5.72,0,0,1,9.48,44.26ZM11,46.82a4.19,4.19,0,0,0,.15.86,1.86,1.86,0,0,0,.4.7,1,1,0,0,0,.8.3,1.06,1.06,0,0,0,.81-.3,1.74,1.74,0,0,0,.4-.7,3.17,3.17,0,0,0,.15-.86c0-.3,0-.56,0-.77s0-.27,0-.45a3.51,3.51,0,0,0,0-.55,2.66,2.66,0,0,0-.12-.56,1.53,1.53,0,0,0-.23-.5,1.16,1.16,0,0,0-1-.5,1.17,1.17,0,0,0-.59.14,1.19,1.19,0,0,0-.38.36,1.53,1.53,0,0,0-.23.5,2.66,2.66,0,0,0-.12.56,5.35,5.35,0,0,0-.05.55v.45C10.94,46.26,11,46.52,11,46.82Z" fill="#f5eb1f"/><path d="M18.65,49.76V45H16.54V43.87a4.06,4.06,0,0,0,.86-.06,2.15,2.15,0,0,0,.74-.24,1.64,1.64,0,0,0,.56-.45,1.58,1.58,0,0,0,.3-.71h1.36v7.35Z" fill="#f5eb1f"/><path d="M22.82,44.26a3.13,3.13,0,0,1,.67-1.17,2.3,2.3,0,0,1,1-.63,3.52,3.52,0,0,1,1.18-.19,3.58,3.58,0,0,1,1.19.19,2.33,2.33,0,0,1,1,.63,3,3,0,0,1,.67,1.17,5.72,5.72,0,0,1,.25,1.79,6.08,6.08,0,0,1-.25,1.85,3.12,3.12,0,0,1-.67,1.18,2.54,2.54,0,0,1-1,.63,3.85,3.85,0,0,1-1.19.18,3.79,3.79,0,0,1-1.18-.18,2.5,2.5,0,0,1-1-.63,3.26,3.26,0,0,1-.67-1.18,6.11,6.11,0,0,1-.24-1.85A5.74,5.74,0,0,1,22.82,44.26Zm1.49,2.56a3.17,3.17,0,0,0,.15.86,1.63,1.63,0,0,0,.4.7,1,1,0,0,0,.79.3,1.06,1.06,0,0,0,.81-.3,1.75,1.75,0,0,0,.41-.7,4.19,4.19,0,0,0,.15-.86c0-.3,0-.56,0-.77V45.6a5.35,5.35,0,0,0-.05-.55,5.05,5.05,0,0,0-.12-.56,1.37,1.37,0,0,0-.24-.5,1.12,1.12,0,0,0-.39-.36,1.2,1.2,0,0,0-.59-.14,1.12,1.12,0,0,0-1,.5,1.77,1.77,0,0,0-.23.5,2.66,2.66,0,0,0-.12.56,5.28,5.28,0,0,0,0,.55c0,.18,0,.33,0,.45S24.29,46.52,24.31,46.82Z" fill="#f5eb1f"/><path d="M29.5,44.26a3,3,0,0,1,.66-1.17,2.3,2.3,0,0,1,1-.63,3.56,3.56,0,0,1,1.18-.19,3.64,3.64,0,0,1,1.2.19,2.3,2.3,0,0,1,1,.63,3,3,0,0,1,.67,1.17,5.44,5.44,0,0,1,.25,1.79,5.79,5.79,0,0,1-.25,1.85,3.12,3.12,0,0,1-.67,1.18,2.5,2.5,0,0,1-1,.63,3.91,3.91,0,0,1-1.2.18,3.83,3.83,0,0,1-1.18-.18,2.5,2.5,0,0,1-1-.63,3.11,3.11,0,0,1-.66-1.18,5.79,5.79,0,0,1-.25-1.85A5.44,5.44,0,0,1,29.5,44.26ZM31,46.82a3.17,3.17,0,0,0,.15.86,1.74,1.74,0,0,0,.4.7,1,1,0,0,0,.79.3,1.06,1.06,0,0,0,.81-.3,1.65,1.65,0,0,0,.41-.7,4.19,4.19,0,0,0,.15-.86c0-.3,0-.56,0-.77V45.6a5.35,5.35,0,0,0-.05-.55,5.05,5.05,0,0,0-.12-.56,1.53,1.53,0,0,0-.23-.5,1.25,1.25,0,0,0-.4-.36,1.2,1.2,0,0,0-.59-.14,1.16,1.16,0,0,0-.58.14,1.09,1.09,0,0,0-.38.36,1.79,1.79,0,0,0-.24.5,5.05,5.05,0,0,0-.12.56,5.28,5.28,0,0,0,0,.55c0,.18,0,.33,0,.45S31,46.52,31,46.82Z" fill="#f5eb1f"/><path d="M38.67,49.76V45H36.56V43.87a4.1,4.1,0,0,0,.86-.06,2.22,2.22,0,0,0,.74-.24,1.64,1.64,0,0,0,.56-.45,1.58,1.58,0,0,0,.3-.71h1.35v7.35Z" fill="#f5eb1f"/><path d="M42.84,44.26a3,3,0,0,1,.67-1.17,2.27,2.27,0,0,1,1-.63,3.62,3.62,0,0,1,1.19-.19,3.58,3.58,0,0,1,1.19.19,2.3,2.3,0,0,1,1,.63,3,3,0,0,1,.68,1.17,5.74,5.74,0,0,1,.24,1.79,6.11,6.11,0,0,1-.24,1.85,3.14,3.14,0,0,1-.68,1.18,2.5,2.5,0,0,1-1,.63,3.85,3.85,0,0,1-1.19.18,3.9,3.9,0,0,1-1.19-.18,2.47,2.47,0,0,1-1-.63,3.12,3.12,0,0,1-.67-1.18,6.08,6.08,0,0,1-.25-1.85A5.72,5.72,0,0,1,42.84,44.26Zm1.48,2.56a4.19,4.19,0,0,0,.15.86,1.86,1.86,0,0,0,.4.7,1,1,0,0,0,.8.3,1.06,1.06,0,0,0,.81-.3,1.74,1.74,0,0,0,.4-.7,3.17,3.17,0,0,0,.15-.86c0-.3,0-.56,0-.77s0-.27,0-.45a3.51,3.51,0,0,0,0-.55,2.66,2.66,0,0,0-.12-.56,1.53,1.53,0,0,0-.23-.5,1.16,1.16,0,0,0-1-.5,1.17,1.17,0,0,0-.59.14,1.19,1.19,0,0,0-.38.36,1.53,1.53,0,0,0-.23.5,2.66,2.66,0,0,0-.12.56,5.35,5.35,0,0,0-.05.55v.45C44.3,46.26,44.31,46.52,44.32,46.82Z" fill="#f5eb1f"/><path d="M49.51,44.26a3.13,3.13,0,0,1,.67-1.17,2.24,2.24,0,0,1,1-.63,3.52,3.52,0,0,1,1.18-.19,3.58,3.58,0,0,1,1.19.19,2.39,2.39,0,0,1,1,.63,3.13,3.13,0,0,1,.67,1.17,5.74,5.74,0,0,1,.24,1.79,6.11,6.11,0,0,1-.24,1.85,3.26,3.26,0,0,1-.67,1.18,2.61,2.61,0,0,1-1,.63,3.85,3.85,0,0,1-1.19.18,3.79,3.79,0,0,1-1.18-.18,2.43,2.43,0,0,1-1-.63,3.26,3.26,0,0,1-.67-1.18,6.11,6.11,0,0,1-.24-1.85A5.74,5.74,0,0,1,49.51,44.26ZM51,46.82a4.19,4.19,0,0,0,.15.86,1.75,1.75,0,0,0,.41.7,1,1,0,0,0,.79.3,1.06,1.06,0,0,0,.81-.3,1.75,1.75,0,0,0,.41-.7,4.19,4.19,0,0,0,.15-.86c0-.3,0-.56,0-.77s0-.27,0-.45a5.28,5.28,0,0,0,0-.55,5.05,5.05,0,0,0-.12-.56,1.55,1.55,0,0,0-.24-.5,1.12,1.12,0,0,0-.39-.36,1.2,1.2,0,0,0-.59-.14,1.12,1.12,0,0,0-1,.5,1.53,1.53,0,0,0-.23.5,2.66,2.66,0,0,0-.12.56,3.48,3.48,0,0,0,0,.55c0,.18,0,.33,0,.45S51,46.52,51,46.82Z" fill="#f5eb1f"/><path d="M58.69,49.76V45H56.57V43.87a4,4,0,0,0,.86-.06,2.2,2.2,0,0,0,.75-.24,1.6,1.6,0,0,0,.55-.45,1.39,1.39,0,0,0,.3-.71h1.36v7.35Z" fill="#f5eb1f"/><path d="M9.48,54.65a3,3,0,0,1,.67-1.17,2.47,2.47,0,0,1,1-.63,3.9,3.9,0,0,1,1.19-.19,3.85,3.85,0,0,1,1.19.19,2.5,2.5,0,0,1,1,.63,3,3,0,0,1,.68,1.17,5.85,5.85,0,0,1,.24,1.8,6,6,0,0,1-.24,1.84,3.06,3.06,0,0,1-.68,1.18,2.5,2.5,0,0,1-1,.63,3.58,3.58,0,0,1-1.19.19,3.62,3.62,0,0,1-1.19-.19,2.47,2.47,0,0,1-1-.63,3,3,0,0,1-.67-1.18,6,6,0,0,1-.25-1.84A5.83,5.83,0,0,1,9.48,54.65ZM11,57.21a4.07,4.07,0,0,0,.15.86,1.9,1.9,0,0,0,.4.71,1.07,1.07,0,0,0,.8.29,1.1,1.1,0,0,0,.81-.29,1.77,1.77,0,0,0,.4-.71,3.1,3.1,0,0,0,.15-.86c0-.3,0-.55,0-.76s0-.28,0-.46a3.51,3.51,0,0,0,0-.55,2.8,2.8,0,0,0-.12-.56,1.75,1.75,0,0,0-.23-.5,1.23,1.23,0,0,0-.4-.35,1.16,1.16,0,0,0-.58-.14,1.17,1.17,0,0,0-.59.14,1.27,1.27,0,0,0-.38.35,1.75,1.75,0,0,0-.23.5,2.8,2.8,0,0,0-.12.56,5.35,5.35,0,0,0-.05.55v.46C10.94,56.66,11,56.91,11,57.21Z" fill="#f5eb1f"/><path d="M18.65,60.15V55.39H16.54V54.27a4.84,4.84,0,0,0,.86-.06,2.68,2.68,0,0,0,.74-.24,1.8,1.8,0,0,0,.56-.46,1.54,1.54,0,0,0,.3-.7h1.36v7.34Z" fill="#f5eb1f"/><path d="M22.82,54.65a3.13,3.13,0,0,1,.67-1.17,2.5,2.5,0,0,1,1-.63,3.79,3.79,0,0,1,1.18-.19,3.85,3.85,0,0,1,1.19.19,2.54,2.54,0,0,1,1,.63,3,3,0,0,1,.67,1.17,5.83,5.83,0,0,1,.25,1.8,6,6,0,0,1-.25,1.84,3,3,0,0,1-.67,1.18,2.54,2.54,0,0,1-1,.63,3.58,3.58,0,0,1-1.19.19,3.52,3.52,0,0,1-1.18-.19,2.5,2.5,0,0,1-1-.63,3.18,3.18,0,0,1-.67-1.18,6,6,0,0,1-.24-1.84A5.85,5.85,0,0,1,22.82,54.65Zm1.49,2.56a3.1,3.1,0,0,0,.15.86,1.66,1.66,0,0,0,.4.71,1,1,0,0,0,.79.29,1.1,1.1,0,0,0,.81-.29,1.79,1.79,0,0,0,.41-.71,4.07,4.07,0,0,0,.15-.86c0-.3,0-.55,0-.76V56a5.35,5.35,0,0,0-.05-.55,5.59,5.59,0,0,0-.12-.56,1.54,1.54,0,0,0-.24-.5,1.15,1.15,0,0,0-1-.49,1.13,1.13,0,0,0-.58.14,1.2,1.2,0,0,0-.39.35,2.07,2.07,0,0,0-.23.5,2.8,2.8,0,0,0-.12.56,5.28,5.28,0,0,0,0,.55c0,.18,0,.33,0,.46S24.29,56.91,24.31,57.21Z" fill="#f5eb1f"/><path d="M29.5,54.65a3,3,0,0,1,.66-1.17,2.5,2.5,0,0,1,1-.63,3.84,3.84,0,0,1,1.18-.19,3.92,3.92,0,0,1,1.2.19,2.5,2.5,0,0,1,1,.63,3,3,0,0,1,.67,1.17,5.54,5.54,0,0,1,.25,1.8,5.72,5.72,0,0,1-.25,1.84,3,3,0,0,1-.67,1.18,2.5,2.5,0,0,1-1,.63,3.64,3.64,0,0,1-1.2.19,3.56,3.56,0,0,1-1.18-.19,2.5,2.5,0,0,1-1-.63,3,3,0,0,1-.66-1.18,5.72,5.72,0,0,1-.25-1.84A5.54,5.54,0,0,1,29.5,54.65ZM31,57.21a3.1,3.1,0,0,0,.15.86,1.77,1.77,0,0,0,.4.71,1,1,0,0,0,.79.29,1.1,1.1,0,0,0,.81-.29,1.68,1.68,0,0,0,.41-.71,4.07,4.07,0,0,0,.15-.86c0-.3,0-.55,0-.76V56a5.35,5.35,0,0,0-.05-.55,5.59,5.59,0,0,0-.12-.56,1.75,1.75,0,0,0-.23-.5,1.35,1.35,0,0,0-.4-.35,1.2,1.2,0,0,0-.59-.14,1.11,1.11,0,0,0-1,.49,2.1,2.1,0,0,0-.24.5,5.59,5.59,0,0,0-.12.56A5.28,5.28,0,0,0,31,56c0,.18,0,.33,0,.46S31,56.91,31,57.21Z" fill="#f5eb1f"/><path d="M38.67,60.15V55.39H36.56V54.27a4.91,4.91,0,0,0,.86-.06,2.79,2.79,0,0,0,.74-.24,1.8,1.8,0,0,0,.56-.46,1.54,1.54,0,0,0,.3-.7h1.35v7.34Z" fill="#f5eb1f"/><path d="M42.84,54.65a3,3,0,0,1,.67-1.17,2.47,2.47,0,0,1,1-.63,3.9,3.9,0,0,1,1.19-.19,3.85,3.85,0,0,1,1.19.19,2.5,2.5,0,0,1,1,.63,3,3,0,0,1,.68,1.17,5.85,5.85,0,0,1,.24,1.8,6,6,0,0,1-.24,1.84,3.06,3.06,0,0,1-.68,1.18,2.5,2.5,0,0,1-1,.63,3.58,3.58,0,0,1-1.19.19,3.62,3.62,0,0,1-1.19-.19,2.47,2.47,0,0,1-1-.63,3,3,0,0,1-.67-1.18,6,6,0,0,1-.25-1.84A5.83,5.83,0,0,1,42.84,54.65Zm1.48,2.56a4.07,4.07,0,0,0,.15.86,1.9,1.9,0,0,0,.4.71,1.07,1.07,0,0,0,.8.29,1.1,1.1,0,0,0,.81-.29,1.77,1.77,0,0,0,.4-.71,3.1,3.1,0,0,0,.15-.86c0-.3,0-.55,0-.76s0-.28,0-.46a3.51,3.51,0,0,0,0-.55,2.8,2.8,0,0,0-.12-.56,1.75,1.75,0,0,0-.23-.5,1.23,1.23,0,0,0-.4-.35,1.16,1.16,0,0,0-.58-.14,1.17,1.17,0,0,0-.59.14,1.27,1.27,0,0,0-.38.35,1.75,1.75,0,0,0-.23.5,2.8,2.8,0,0,0-.12.56,5.35,5.35,0,0,0-.05.55v.46C44.3,56.66,44.31,56.91,44.32,57.21Z" fill="#f5eb1f"/><path d="M49.51,54.65a3.13,3.13,0,0,1,.67-1.17,2.43,2.43,0,0,1,1-.63,3.79,3.79,0,0,1,1.18-.19,3.85,3.85,0,0,1,1.19.19,2.61,2.61,0,0,1,1,.63,3.13,3.13,0,0,1,.67,1.17,5.85,5.85,0,0,1,.24,1.8,6,6,0,0,1-.24,1.84,3.18,3.18,0,0,1-.67,1.18,2.61,2.61,0,0,1-1,.63,3.58,3.58,0,0,1-1.19.19,3.52,3.52,0,0,1-1.18-.19,2.43,2.43,0,0,1-1-.63,3.18,3.18,0,0,1-.67-1.18,6,6,0,0,1-.24-1.84A5.85,5.85,0,0,1,49.51,54.65ZM51,57.21a4.07,4.07,0,0,0,.15.86,1.79,1.79,0,0,0,.41.71,1,1,0,0,0,.79.29,1.1,1.1,0,0,0,.81-.29,1.79,1.79,0,0,0,.41-.71,4.07,4.07,0,0,0,.15-.86c0-.3,0-.55,0-.76s0-.28,0-.46a5.28,5.28,0,0,0,0-.55,5.59,5.59,0,0,0-.12-.56,1.78,1.78,0,0,0-.24-.5,1.15,1.15,0,0,0-1-.49,1.13,1.13,0,0,0-.58.14,1.2,1.2,0,0,0-.39.35,1.75,1.75,0,0,0-.23.5,2.8,2.8,0,0,0-.12.56A3.48,3.48,0,0,0,51,56c0,.18,0,.33,0,.46S51,56.91,51,57.21Z" fill="#f5eb1f"/><path d="M58.69,60.15V55.39H56.57V54.27a4.77,4.77,0,0,0,.86-.06,2.75,2.75,0,0,0,.75-.24,1.76,1.76,0,0,0,.55-.46,1.35,1.35,0,0,0,.3-.7h1.36v7.34Z" fill="#f5eb1f"/></g></g></svg>